<svg width="24" height="36" viewBox="0 0 24 36" fill="none" xmlns="http://www.w3.org/2000/svg">
<path d="M20.477 0.000619896C21.0091 -0.0110827 21.5316 0.143158 21.9719 0.442135C22.4122 0.741111 22.7484 1.17005 22.9337 1.66893C23.1191 2.1678 23.1444 2.71196 23.0062 3.22589C22.8679 3.73982 22.573 4.1977 22.1623 4.53626L6.49459 17.9586L22.1623 31.3762C22.4464 31.585 22.6843 31.85 22.8611 32.155C23.0379 32.46 23.1499 32.7982 23.1899 33.1485C23.23 33.4987 23.1973 33.8534 23.094 34.1904C22.9906 34.5274 22.8187 34.8396 22.5892 35.1071C22.3596 35.3746 22.0773 35.5916 21.7599 35.745C21.4425 35.8984 21.0968 35.9845 20.7446 35.9981C20.3923 36.0117 20.041 35.9526 19.7128 35.8241C19.3845 35.6957 19.0862 35.5008 18.8368 35.2518L0.898602 19.9039C0.616903 19.6635 0.390701 19.3651 0.23559 19.0289C0.0804806 18.6926 0.000160217 18.3266 0.000160217 17.9562C0.000160217 17.5859 0.0804806 17.2199 0.23559 16.8836C0.390701 16.5473 0.616903 16.2487 0.898602 16.0083L18.8368 0.645615C19.2899 0.243118 19.8711 0.0142891 20.477 2.92411e-05V0.000619896Z" fill="#E2E2E2"/>
</svg>
