<svg width="24" height="35" viewBox="0 0 24 35" fill="none" xmlns="http://www.w3.org/2000/svg">
<path d="M2.7295 0.000598162C2.19743 -0.0106941 1.67493 0.138138 1.23465 0.426633C0.794366 0.715127 0.458173 1.12902 0.272815 1.61041C0.0874562 2.0918 0.0621411 2.61688 0.200388 3.11279C0.338635 3.6087 0.633574 4.05053 1.0442 4.37721L16.712 17.3289L1.0442 30.2761C0.760151 30.4776 0.522264 30.7333 0.34544 31.0276C0.168616 31.3219 0.0566652 31.6483 0.0165959 31.9862C-0.0234734 32.3242 0.00920352 32.6664 0.11258 32.9916C0.215956 33.3168 0.387804 33.618 0.617363 33.8762C0.846923 34.1343 1.12925 34.3437 1.44666 34.4917C1.76407 34.6397 2.10973 34.7228 2.46198 34.736C2.81424 34.7491 3.16551 34.6921 3.49379 34.5681C3.82208 34.4442 4.1203 34.2561 4.36979 34.0158L22.308 19.2061C22.5897 18.9741 22.8159 18.6862 22.971 18.3617C23.1261 18.0372 23.2064 17.684 23.2064 17.3267C23.2064 16.9693 23.1261 16.6161 22.971 16.2916C22.8159 15.9672 22.5897 15.679 22.308 15.447L4.36979 0.622979C3.91665 0.234594 3.33543 0.0137881 2.7295 2.82158e-05V0.000598162Z" fill="#E2E2E2"/>
</svg>
