<svg width="108" height="67" viewBox="0 0 108 67" fill="none" xmlns="http://www.w3.org/2000/svg">
<rect x="2.5" y="2.5" width="103" height="61.8571" stroke="white" stroke-width="5"/>
<path d="M75.6513 31.0887L42.2227 15.6602C41.4256 15.3002 40.4999 15.3516 39.7541 15.8402C39.0084 16.303 38.5713 17.1259 38.5713 18.0002V48.8573C38.5713 49.7316 39.0084 50.5544 39.7541 51.0173C40.1656 51.3002 40.6541 51.4287 41.1427 51.4287C41.5027 51.4287 41.8884 51.3516 42.2227 51.1973L75.6513 35.7687C76.5513 35.3316 77.1427 34.4316 77.1427 33.4287C77.1427 32.4259 76.5513 31.5259 75.6513 31.0887ZM43.7141 44.8459V22.0373L68.4256 33.4287L43.7141 44.8459Z" fill="white"/>
</svg>
